# xmcd
#
# Track frame offsets:
#  150
#  8860
#  20303
#  32275
#  40948
#  52938
#  63930
#  74088
#  83893
#  96380
#  106780
#  118398
#  129103
#  140488
#
# Disc length: 2004 seconds
#
# Revision: 0
# Processed by: cddbd v1.5.1PL2 Copyright (c) Steve Scherf et al.
# Submitted via: Collectorz.com_Music_Collector 6.9
#
DISCID=b507d20e
DTITLE=Gibson Don - Greatest hits
DYEAR=1991
DGENRE=Country - Pop
TTITLE0=Sweet dreams of you
TTITLE1=Oh lonesome me
TTITLE2=I can't stop loving you
TTITLE3=Blue, blue day
TTITLE4=Give myself a party
TTITLE5=Look who's blue
TTITLE6=Who cares (for me)
TTITLE7=Don't tell me your troubles
TTITLE8=Just one time
TTITLE9=Yes I'm hurting
TTITLE10=Sea of heartbreak
TTITLE11=Lonesome number one
TTITLE12=I can mend your broken heart
TTITLE13=Funny,familiar,forgotten feelings
EXTD=
EXTT0=
EXTT1=
EXTT2=
EXTT3=
EXTT4=
EXTT5=
EXTT6=
EXTT7=
EXTT8=
EXTT9=
EXTT10=
EXTT11=
EXTT12=
EXTT13=
PLAYORDER=
